<mxfile host="app.diagrams.net" agent="Mozilla/5.0 (Macintosh; Intel Mac OS X 10_15_7) AppleWebKit/537.36 (KHTML, like Gecko) Chrome/132.0.0.0 Safari/537.36" version="26.0.11">
  <diagram name="Page-1" id="03018318-947c-dd8e-b7a3-06fadd420f32">
    <mxGraphModel dx="1283" dy="813" grid="1" gridSize="10" guides="1" tooltips="1" connect="1" arrows="1" fold="1" page="1" pageScale="1" pageWidth="1100" pageHeight="850" background="none" math="0" shadow="0">
      <root>
        <mxCell id="0" />
        <mxCell id="1" parent="0" />
        <mxCell id="677b7b8949515195-1" value="" style="whiteSpace=wrap;html=1;rounded=0;shadow=0;labelBackgroundColor=none;strokeColor=#000000;strokeWidth=1;fillColor=none;fontFamily=Verdana;fontSize=12;fontColor=#000000;align=center;comic=1;" parent="1" vertex="1">
          <mxGeometry x="20" y="40" width="1060" height="790" as="geometry" />
        </mxCell>
        <mxCell id="ywKk5z_2qfM9JBNrJSl7-1" value="" style="rounded=0;whiteSpace=wrap;html=1;fillColor=none;" parent="1" vertex="1">
          <mxGeometry x="30" y="50" width="1000" height="140" as="geometry" />
        </mxCell>
        <mxCell id="zX-MKMj06BqSPDNbv460-1" value="&lt;font style=&quot;font-size: 18px;&quot;&gt;companyitassets/reports/softwareassets&lt;/font&gt;" style="html=1;strokeWidth=1;shadow=0;dashed=0;shape=mxgraph.ios7ui.url;fillColor=#e0e0e0;strokeColor=#c0c0c0;buttonText=;strokeColor2=#222222;fontColor=#222222;fontSize=8;spacingTop=2;align=center;whiteSpace=wrap;" parent="1" vertex="1">
          <mxGeometry x="20" width="1050" height="32.5" as="geometry" />
        </mxCell>
        <mxCell id="ywKk5z_2qfM9JBNrJSl7-2" value="&lt;font style=&quot;font-size: 14px;&quot;&gt;From&lt;/font&gt;" style="fillColor=none;strokeColor=none;html=1;fontSize=12;fontStyle=0;align=left;fontColor=#596780;fontStyle=1;fontSize=11;sketch=1;hachureGap=4;pointerEvents=0;fontFamily=Helvetica;" parent="1" vertex="1">
          <mxGeometry x="40" y="50" width="40" height="25" as="geometry" />
        </mxCell>
        <mxCell id="ywKk5z_2qfM9JBNrJSl7-3" value="&lt;font style=&quot;font-size: 14px;&quot; face=&quot;Helvetica&quot;&gt;04-11-24&lt;/font&gt;" style="rounded=1;arcSize=9;fillColor=#F7F8F9;align=left;spacingLeft=5;strokeColor=#DEE1E6;html=1;strokeWidth=2;fontColor=#596780;fontSize=12;sketch=1;hachureGap=4;pointerEvents=0;fontFamily=Architects Daughter;fontSource=https%3A%2F%2Ffonts.googleapis.com%2Fcss%3Ffamily%3DArchitects%2BDaughter;" parent="1" vertex="1">
          <mxGeometry x="40" y="74.5" width="150" height="33" as="geometry" />
        </mxCell>
        <mxCell id="ywKk5z_2qfM9JBNrJSl7-4" value="" style="shape=mxgraph.gmdl.calendar;fillColor=#5A6881;strokeColor=none;sketch=0;hachureGap=4;pointerEvents=0;fontFamily=Architects Daughter;fontSource=https%3A%2F%2Ffonts.googleapis.com%2Fcss%3Ffamily%3DArchitects%2BDaughter;fontSize=20;" parent="ywKk5z_2qfM9JBNrJSl7-3" vertex="1">
          <mxGeometry x="1" y="0.5" width="18" height="18" relative="1" as="geometry">
            <mxPoint x="-29" y="-9" as="offset" />
          </mxGeometry>
        </mxCell>
        <mxCell id="ywKk5z_2qfM9JBNrJSl7-5" value="&lt;font style=&quot;font-size: 14px;&quot;&gt;To&lt;/font&gt;" style="fillColor=none;strokeColor=none;html=1;fontSize=12;fontStyle=0;align=left;fontColor=#596780;fontStyle=1;fontSize=11;sketch=1;hachureGap=4;pointerEvents=0;fontFamily=Helvetica;" parent="1" vertex="1">
          <mxGeometry x="40" y="109.5" width="20" height="25" as="geometry" />
        </mxCell>
        <mxCell id="ywKk5z_2qfM9JBNrJSl7-6" value="&lt;font style=&quot;font-size: 14px;&quot; face=&quot;Helvetica&quot;&gt;04-02-25&lt;/font&gt;" style="rounded=1;arcSize=9;fillColor=#F7F8F9;align=left;spacingLeft=5;strokeColor=#DEE1E6;html=1;strokeWidth=2;fontColor=#596780;fontSize=12;sketch=1;hachureGap=4;pointerEvents=0;fontFamily=Architects Daughter;fontSource=https%3A%2F%2Ffonts.googleapis.com%2Fcss%3Ffamily%3DArchitects%2BDaughter;" parent="1" vertex="1">
          <mxGeometry x="40" y="134.5" width="150" height="33" as="geometry" />
        </mxCell>
        <mxCell id="ywKk5z_2qfM9JBNrJSl7-7" value="" style="shape=mxgraph.gmdl.calendar;fillColor=#5A6881;strokeColor=none;sketch=0;hachureGap=4;pointerEvents=0;fontFamily=Architects Daughter;fontSource=https%3A%2F%2Ffonts.googleapis.com%2Fcss%3Ffamily%3DArchitects%2BDaughter;fontSize=20;" parent="ywKk5z_2qfM9JBNrJSl7-6" vertex="1">
          <mxGeometry x="1" y="0.5" width="18" height="18" relative="1" as="geometry">
            <mxPoint x="-29" y="-9" as="offset" />
          </mxGeometry>
        </mxCell>
        <mxCell id="ywKk5z_2qfM9JBNrJSl7-8" value="Apply" style="rounded=1;fillColor=#0057D8;strokeColor=none;html=1;whiteSpace=wrap;fontColor=#ffffff;align=center;verticalAlign=middle;fontStyle=0;fontSize=12;sketch=0;" parent="1" vertex="1">
          <mxGeometry x="502" y="103.5" width="86" height="33" as="geometry" />
        </mxCell>
        <mxCell id="ywKk5z_2qfM9JBNrJSl7-84" value="&lt;i&gt;&lt;font style=&quot;color: light-dark(rgb(0, 0, 0), rgb(125, 125, 125));&quot;&gt;The default date values are from: today minus 3 months, to: today&amp;nbsp;&lt;/font&gt;&lt;/i&gt;" style="text;html=1;align=left;verticalAlign=middle;whiteSpace=wrap;rounded=0;" parent="1" vertex="1">
          <mxGeometry x="30" y="160" width="360" height="30" as="geometry" />
        </mxCell>
        <mxCell id="N3RhH1qTN14WOQrYuTi2-1" value="Dep. 1A" style="shape=table;startSize=30;container=1;collapsible=0;childLayout=tableLayout;strokeColor=default;fontSize=20;fontStyle=1;align=left;" parent="1" vertex="1">
          <mxGeometry x="30" y="240" width="1000" height="470" as="geometry" />
        </mxCell>
        <mxCell id="N3RhH1qTN14WOQrYuTi2-2" value="" style="shape=tableRow;horizontal=0;startSize=0;swimlaneHead=0;swimlaneBody=0;strokeColor=inherit;top=0;left=0;bottom=0;right=0;collapsible=0;dropTarget=0;fillColor=none;points=[[0,0.5],[1,0.5]];portConstraint=eastwest;fontSize=16;" parent="N3RhH1qTN14WOQrYuTi2-1" vertex="1">
          <mxGeometry y="30" width="1000" height="40" as="geometry" />
        </mxCell>
        <mxCell id="N3RhH1qTN14WOQrYuTi2-3" value="&lt;b&gt;License Type&lt;/b&gt;" style="shape=partialRectangle;html=1;whiteSpace=wrap;connectable=0;strokeColor=#6c8ebf;overflow=hidden;fillColor=#dae8fc;top=0;left=0;bottom=0;right=0;pointerEvents=1;fontSize=16;" parent="N3RhH1qTN14WOQrYuTi2-2" vertex="1">
          <mxGeometry width="333" height="40" as="geometry">
            <mxRectangle width="333" height="40" as="alternateBounds" />
          </mxGeometry>
        </mxCell>
        <mxCell id="y86xiS6CzLBwcgfLMdS_-13" value="&lt;b&gt;Licences Available&lt;/b&gt;" style="shape=partialRectangle;html=1;whiteSpace=wrap;connectable=0;strokeColor=#6c8ebf;overflow=hidden;fillColor=#dae8fc;top=0;left=0;bottom=0;right=0;pointerEvents=1;fontSize=16;" vertex="1" parent="N3RhH1qTN14WOQrYuTi2-2">
          <mxGeometry x="333" width="332" height="40" as="geometry">
            <mxRectangle width="332" height="40" as="alternateBounds" />
          </mxGeometry>
        </mxCell>
        <mxCell id="N3RhH1qTN14WOQrYuTi2-4" value="&lt;b&gt;Lincences in use&lt;/b&gt;" style="shape=partialRectangle;html=1;whiteSpace=wrap;connectable=0;strokeColor=#6c8ebf;overflow=hidden;fillColor=#dae8fc;top=0;left=0;bottom=0;right=0;pointerEvents=1;fontSize=16;" parent="N3RhH1qTN14WOQrYuTi2-2" vertex="1">
          <mxGeometry x="665" width="335" height="40" as="geometry">
            <mxRectangle width="335" height="40" as="alternateBounds" />
          </mxGeometry>
        </mxCell>
        <mxCell id="y86xiS6CzLBwcgfLMdS_-1" style="shape=tableRow;horizontal=0;startSize=0;swimlaneHead=0;swimlaneBody=0;strokeColor=inherit;top=0;left=0;bottom=0;right=0;collapsible=0;dropTarget=0;fillColor=none;points=[[0,0.5],[1,0.5]];portConstraint=eastwest;fontSize=16;" vertex="1" parent="N3RhH1qTN14WOQrYuTi2-1">
          <mxGeometry y="70" width="1000" height="40" as="geometry" />
        </mxCell>
        <mxCell id="y86xiS6CzLBwcgfLMdS_-2" value="3Ds Max" style="shape=partialRectangle;html=1;whiteSpace=wrap;connectable=0;strokeColor=inherit;overflow=hidden;fillColor=none;top=0;left=0;bottom=0;right=0;pointerEvents=1;fontSize=16;" vertex="1" parent="y86xiS6CzLBwcgfLMdS_-1">
          <mxGeometry width="333" height="40" as="geometry">
            <mxRectangle width="333" height="40" as="alternateBounds" />
          </mxGeometry>
        </mxCell>
        <mxCell id="y86xiS6CzLBwcgfLMdS_-14" value="6" style="shape=partialRectangle;html=1;whiteSpace=wrap;connectable=0;strokeColor=inherit;overflow=hidden;fillColor=none;top=0;left=0;bottom=0;right=0;pointerEvents=1;fontSize=16;" vertex="1" parent="y86xiS6CzLBwcgfLMdS_-1">
          <mxGeometry x="333" width="332" height="40" as="geometry">
            <mxRectangle width="332" height="40" as="alternateBounds" />
          </mxGeometry>
        </mxCell>
        <mxCell id="y86xiS6CzLBwcgfLMdS_-3" value="5" style="shape=partialRectangle;html=1;whiteSpace=wrap;connectable=0;strokeColor=inherit;overflow=hidden;fillColor=none;top=0;left=0;bottom=0;right=0;pointerEvents=1;fontSize=16;" vertex="1" parent="y86xiS6CzLBwcgfLMdS_-1">
          <mxGeometry x="665" width="335" height="40" as="geometry">
            <mxRectangle width="335" height="40" as="alternateBounds" />
          </mxGeometry>
        </mxCell>
        <mxCell id="N3RhH1qTN14WOQrYuTi2-6" value="" style="shape=tableRow;horizontal=0;startSize=0;swimlaneHead=0;swimlaneBody=0;strokeColor=inherit;top=0;left=0;bottom=0;right=0;collapsible=0;dropTarget=0;fillColor=none;points=[[0,0.5],[1,0.5]];portConstraint=eastwest;fontSize=16;" parent="N3RhH1qTN14WOQrYuTi2-1" vertex="1">
          <mxGeometry y="110" width="1000" height="40" as="geometry" />
        </mxCell>
        <mxCell id="N3RhH1qTN14WOQrYuTi2-7" value="Adobe Photoshop" style="shape=partialRectangle;html=1;whiteSpace=wrap;connectable=0;strokeColor=inherit;overflow=hidden;fillColor=none;top=0;left=0;bottom=0;right=0;pointerEvents=1;fontSize=16;" parent="N3RhH1qTN14WOQrYuTi2-6" vertex="1">
          <mxGeometry width="333" height="40" as="geometry">
            <mxRectangle width="333" height="40" as="alternateBounds" />
          </mxGeometry>
        </mxCell>
        <mxCell id="y86xiS6CzLBwcgfLMdS_-15" value="4" style="shape=partialRectangle;html=1;whiteSpace=wrap;connectable=0;strokeColor=inherit;overflow=hidden;fillColor=none;top=0;left=0;bottom=0;right=0;pointerEvents=1;fontSize=16;" vertex="1" parent="N3RhH1qTN14WOQrYuTi2-6">
          <mxGeometry x="333" width="332" height="40" as="geometry">
            <mxRectangle width="332" height="40" as="alternateBounds" />
          </mxGeometry>
        </mxCell>
        <mxCell id="N3RhH1qTN14WOQrYuTi2-8" value="4" style="shape=partialRectangle;html=1;whiteSpace=wrap;connectable=0;strokeColor=inherit;overflow=hidden;fillColor=none;top=0;left=0;bottom=0;right=0;pointerEvents=1;fontSize=16;" parent="N3RhH1qTN14WOQrYuTi2-6" vertex="1">
          <mxGeometry x="665" width="335" height="40" as="geometry">
            <mxRectangle width="335" height="40" as="alternateBounds" />
          </mxGeometry>
        </mxCell>
        <mxCell id="N3RhH1qTN14WOQrYuTi2-10" value="" style="shape=tableRow;horizontal=0;startSize=0;swimlaneHead=0;swimlaneBody=0;strokeColor=inherit;top=0;left=0;bottom=0;right=0;collapsible=0;dropTarget=0;fillColor=none;points=[[0,0.5],[1,0.5]];portConstraint=eastwest;fontSize=16;" parent="N3RhH1qTN14WOQrYuTi2-1" vertex="1">
          <mxGeometry y="150" width="1000" height="40" as="geometry" />
        </mxCell>
        <mxCell id="N3RhH1qTN14WOQrYuTi2-11" value="Adobe After Effects" style="shape=partialRectangle;html=1;whiteSpace=wrap;connectable=0;strokeColor=inherit;overflow=hidden;fillColor=none;top=0;left=0;bottom=0;right=0;pointerEvents=1;fontSize=16;" parent="N3RhH1qTN14WOQrYuTi2-10" vertex="1">
          <mxGeometry width="333" height="40" as="geometry">
            <mxRectangle width="333" height="40" as="alternateBounds" />
          </mxGeometry>
        </mxCell>
        <mxCell id="y86xiS6CzLBwcgfLMdS_-16" value="6" style="shape=partialRectangle;html=1;whiteSpace=wrap;connectable=0;strokeColor=inherit;overflow=hidden;fillColor=none;top=0;left=0;bottom=0;right=0;pointerEvents=1;fontSize=16;" vertex="1" parent="N3RhH1qTN14WOQrYuTi2-10">
          <mxGeometry x="333" width="332" height="40" as="geometry">
            <mxRectangle width="332" height="40" as="alternateBounds" />
          </mxGeometry>
        </mxCell>
        <mxCell id="N3RhH1qTN14WOQrYuTi2-12" value="5" style="shape=partialRectangle;html=1;whiteSpace=wrap;connectable=0;strokeColor=inherit;overflow=hidden;fillColor=none;top=0;left=0;bottom=0;right=0;pointerEvents=1;fontSize=16;" parent="N3RhH1qTN14WOQrYuTi2-10" vertex="1">
          <mxGeometry x="665" width="335" height="40" as="geometry">
            <mxRectangle width="335" height="40" as="alternateBounds" />
          </mxGeometry>
        </mxCell>
        <mxCell id="N3RhH1qTN14WOQrYuTi2-14" style="shape=tableRow;horizontal=0;startSize=0;swimlaneHead=0;swimlaneBody=0;strokeColor=inherit;top=0;left=0;bottom=0;right=0;collapsible=0;dropTarget=0;fillColor=none;points=[[0,0.5],[1,0.5]];portConstraint=eastwest;fontSize=16;" parent="N3RhH1qTN14WOQrYuTi2-1" vertex="1">
          <mxGeometry y="190" width="1000" height="40" as="geometry" />
        </mxCell>
        <mxCell id="N3RhH1qTN14WOQrYuTi2-15" value="Adobe Lightroom" style="shape=partialRectangle;html=1;whiteSpace=wrap;connectable=0;strokeColor=inherit;overflow=hidden;fillColor=none;top=0;left=0;bottom=0;right=0;pointerEvents=1;fontSize=16;" parent="N3RhH1qTN14WOQrYuTi2-14" vertex="1">
          <mxGeometry width="333" height="40" as="geometry">
            <mxRectangle width="333" height="40" as="alternateBounds" />
          </mxGeometry>
        </mxCell>
        <mxCell id="y86xiS6CzLBwcgfLMdS_-17" value="4" style="shape=partialRectangle;html=1;whiteSpace=wrap;connectable=0;strokeColor=inherit;overflow=hidden;fillColor=none;top=0;left=0;bottom=0;right=0;pointerEvents=1;fontSize=16;" vertex="1" parent="N3RhH1qTN14WOQrYuTi2-14">
          <mxGeometry x="333" width="332" height="40" as="geometry">
            <mxRectangle width="332" height="40" as="alternateBounds" />
          </mxGeometry>
        </mxCell>
        <mxCell id="N3RhH1qTN14WOQrYuTi2-16" value="3" style="shape=partialRectangle;html=1;whiteSpace=wrap;connectable=0;strokeColor=inherit;overflow=hidden;fillColor=none;top=0;left=0;bottom=0;right=0;pointerEvents=1;fontSize=16;" parent="N3RhH1qTN14WOQrYuTi2-14" vertex="1">
          <mxGeometry x="665" width="335" height="40" as="geometry">
            <mxRectangle width="335" height="40" as="alternateBounds" />
          </mxGeometry>
        </mxCell>
        <mxCell id="N3RhH1qTN14WOQrYuTi2-17" style="shape=tableRow;horizontal=0;startSize=0;swimlaneHead=0;swimlaneBody=0;strokeColor=inherit;top=0;left=0;bottom=0;right=0;collapsible=0;dropTarget=0;fillColor=none;points=[[0,0.5],[1,0.5]];portConstraint=eastwest;fontSize=16;" parent="N3RhH1qTN14WOQrYuTi2-1" vertex="1">
          <mxGeometry y="230" width="1000" height="40" as="geometry" />
        </mxCell>
        <mxCell id="N3RhH1qTN14WOQrYuTi2-18" value="Cinema 4D" style="shape=partialRectangle;html=1;whiteSpace=wrap;connectable=0;strokeColor=inherit;overflow=hidden;fillColor=none;top=0;left=0;bottom=0;right=0;pointerEvents=1;fontSize=16;" parent="N3RhH1qTN14WOQrYuTi2-17" vertex="1">
          <mxGeometry width="333" height="40" as="geometry">
            <mxRectangle width="333" height="40" as="alternateBounds" />
          </mxGeometry>
        </mxCell>
        <mxCell id="y86xiS6CzLBwcgfLMdS_-18" value="4" style="shape=partialRectangle;html=1;whiteSpace=wrap;connectable=0;strokeColor=inherit;overflow=hidden;fillColor=none;top=0;left=0;bottom=0;right=0;pointerEvents=1;fontSize=16;" vertex="1" parent="N3RhH1qTN14WOQrYuTi2-17">
          <mxGeometry x="333" width="332" height="40" as="geometry">
            <mxRectangle width="332" height="40" as="alternateBounds" />
          </mxGeometry>
        </mxCell>
        <mxCell id="N3RhH1qTN14WOQrYuTi2-19" value="3" style="shape=partialRectangle;html=1;whiteSpace=wrap;connectable=0;strokeColor=inherit;overflow=hidden;fillColor=none;top=0;left=0;bottom=0;right=0;pointerEvents=1;fontSize=16;" parent="N3RhH1qTN14WOQrYuTi2-17" vertex="1">
          <mxGeometry x="665" width="335" height="40" as="geometry">
            <mxRectangle width="335" height="40" as="alternateBounds" />
          </mxGeometry>
        </mxCell>
        <mxCell id="y86xiS6CzLBwcgfLMdS_-7" style="shape=tableRow;horizontal=0;startSize=0;swimlaneHead=0;swimlaneBody=0;strokeColor=inherit;top=0;left=0;bottom=0;right=0;collapsible=0;dropTarget=0;fillColor=none;points=[[0,0.5],[1,0.5]];portConstraint=eastwest;fontSize=16;" vertex="1" parent="N3RhH1qTN14WOQrYuTi2-1">
          <mxGeometry y="270" width="1000" height="40" as="geometry" />
        </mxCell>
        <mxCell id="y86xiS6CzLBwcgfLMdS_-8" value="Houdini" style="shape=partialRectangle;html=1;whiteSpace=wrap;connectable=0;strokeColor=inherit;overflow=hidden;fillColor=none;top=0;left=0;bottom=0;right=0;pointerEvents=1;fontSize=16;" vertex="1" parent="y86xiS6CzLBwcgfLMdS_-7">
          <mxGeometry width="333" height="40" as="geometry">
            <mxRectangle width="333" height="40" as="alternateBounds" />
          </mxGeometry>
        </mxCell>
        <mxCell id="y86xiS6CzLBwcgfLMdS_-19" value="6" style="shape=partialRectangle;html=1;whiteSpace=wrap;connectable=0;strokeColor=inherit;overflow=hidden;fillColor=none;top=0;left=0;bottom=0;right=0;pointerEvents=1;fontSize=16;" vertex="1" parent="y86xiS6CzLBwcgfLMdS_-7">
          <mxGeometry x="333" width="332" height="40" as="geometry">
            <mxRectangle width="332" height="40" as="alternateBounds" />
          </mxGeometry>
        </mxCell>
        <mxCell id="y86xiS6CzLBwcgfLMdS_-9" value="4" style="shape=partialRectangle;html=1;whiteSpace=wrap;connectable=0;strokeColor=inherit;overflow=hidden;fillColor=none;top=0;left=0;bottom=0;right=0;pointerEvents=1;fontSize=16;" vertex="1" parent="y86xiS6CzLBwcgfLMdS_-7">
          <mxGeometry x="665" width="335" height="40" as="geometry">
            <mxRectangle width="335" height="40" as="alternateBounds" />
          </mxGeometry>
        </mxCell>
        <mxCell id="N3RhH1qTN14WOQrYuTi2-20" style="shape=tableRow;horizontal=0;startSize=0;swimlaneHead=0;swimlaneBody=0;strokeColor=inherit;top=0;left=0;bottom=0;right=0;collapsible=0;dropTarget=0;fillColor=none;points=[[0,0.5],[1,0.5]];portConstraint=eastwest;fontSize=16;" parent="N3RhH1qTN14WOQrYuTi2-1" vertex="1">
          <mxGeometry y="310" width="1000" height="40" as="geometry" />
        </mxCell>
        <mxCell id="N3RhH1qTN14WOQrYuTi2-21" value="Maya" style="shape=partialRectangle;html=1;whiteSpace=wrap;connectable=0;strokeColor=inherit;overflow=hidden;fillColor=none;top=0;left=0;bottom=0;right=0;pointerEvents=1;fontSize=16;" parent="N3RhH1qTN14WOQrYuTi2-20" vertex="1">
          <mxGeometry width="333" height="40" as="geometry">
            <mxRectangle width="333" height="40" as="alternateBounds" />
          </mxGeometry>
        </mxCell>
        <mxCell id="y86xiS6CzLBwcgfLMdS_-20" value="4" style="shape=partialRectangle;html=1;whiteSpace=wrap;connectable=0;strokeColor=inherit;overflow=hidden;fillColor=none;top=0;left=0;bottom=0;right=0;pointerEvents=1;fontSize=16;" vertex="1" parent="N3RhH1qTN14WOQrYuTi2-20">
          <mxGeometry x="333" width="332" height="40" as="geometry">
            <mxRectangle width="332" height="40" as="alternateBounds" />
          </mxGeometry>
        </mxCell>
        <mxCell id="N3RhH1qTN14WOQrYuTi2-22" value="3" style="shape=partialRectangle;html=1;whiteSpace=wrap;connectable=0;strokeColor=inherit;overflow=hidden;fillColor=none;top=0;left=0;bottom=0;right=0;pointerEvents=1;fontSize=16;" parent="N3RhH1qTN14WOQrYuTi2-20" vertex="1">
          <mxGeometry x="665" width="335" height="40" as="geometry">
            <mxRectangle width="335" height="40" as="alternateBounds" />
          </mxGeometry>
        </mxCell>
        <mxCell id="y86xiS6CzLBwcgfLMdS_-4" style="shape=tableRow;horizontal=0;startSize=0;swimlaneHead=0;swimlaneBody=0;strokeColor=inherit;top=0;left=0;bottom=0;right=0;collapsible=0;dropTarget=0;fillColor=none;points=[[0,0.5],[1,0.5]];portConstraint=eastwest;fontSize=16;" vertex="1" parent="N3RhH1qTN14WOQrYuTi2-1">
          <mxGeometry y="350" width="1000" height="40" as="geometry" />
        </mxCell>
        <mxCell id="y86xiS6CzLBwcgfLMdS_-5" value="Realflow" style="shape=partialRectangle;html=1;whiteSpace=wrap;connectable=0;strokeColor=inherit;overflow=hidden;fillColor=none;top=0;left=0;bottom=0;right=0;pointerEvents=1;fontSize=16;" vertex="1" parent="y86xiS6CzLBwcgfLMdS_-4">
          <mxGeometry width="333" height="40" as="geometry">
            <mxRectangle width="333" height="40" as="alternateBounds" />
          </mxGeometry>
        </mxCell>
        <mxCell id="y86xiS6CzLBwcgfLMdS_-21" value="3" style="shape=partialRectangle;html=1;whiteSpace=wrap;connectable=0;strokeColor=inherit;overflow=hidden;fillColor=none;top=0;left=0;bottom=0;right=0;pointerEvents=1;fontSize=16;" vertex="1" parent="y86xiS6CzLBwcgfLMdS_-4">
          <mxGeometry x="333" width="332" height="40" as="geometry">
            <mxRectangle width="332" height="40" as="alternateBounds" />
          </mxGeometry>
        </mxCell>
        <mxCell id="y86xiS6CzLBwcgfLMdS_-6" value="3" style="shape=partialRectangle;html=1;whiteSpace=wrap;connectable=0;strokeColor=inherit;overflow=hidden;fillColor=none;top=0;left=0;bottom=0;right=0;pointerEvents=1;fontSize=16;" vertex="1" parent="y86xiS6CzLBwcgfLMdS_-4">
          <mxGeometry x="665" width="335" height="40" as="geometry">
            <mxRectangle width="335" height="40" as="alternateBounds" />
          </mxGeometry>
        </mxCell>
        <mxCell id="y86xiS6CzLBwcgfLMdS_-10" style="shape=tableRow;horizontal=0;startSize=0;swimlaneHead=0;swimlaneBody=0;strokeColor=inherit;top=0;left=0;bottom=0;right=0;collapsible=0;dropTarget=0;fillColor=none;points=[[0,0.5],[1,0.5]];portConstraint=eastwest;fontSize=16;" vertex="1" parent="N3RhH1qTN14WOQrYuTi2-1">
          <mxGeometry y="390" width="1000" height="40" as="geometry" />
        </mxCell>
        <mxCell id="y86xiS6CzLBwcgfLMdS_-11" value="VRay" style="shape=partialRectangle;html=1;whiteSpace=wrap;connectable=0;strokeColor=inherit;overflow=hidden;fillColor=none;top=0;left=0;bottom=0;right=0;pointerEvents=1;fontSize=16;" vertex="1" parent="y86xiS6CzLBwcgfLMdS_-10">
          <mxGeometry width="333" height="40" as="geometry">
            <mxRectangle width="333" height="40" as="alternateBounds" />
          </mxGeometry>
        </mxCell>
        <mxCell id="y86xiS6CzLBwcgfLMdS_-22" value="2" style="shape=partialRectangle;html=1;whiteSpace=wrap;connectable=0;strokeColor=inherit;overflow=hidden;fillColor=none;top=0;left=0;bottom=0;right=0;pointerEvents=1;fontSize=16;" vertex="1" parent="y86xiS6CzLBwcgfLMdS_-10">
          <mxGeometry x="333" width="332" height="40" as="geometry">
            <mxRectangle width="332" height="40" as="alternateBounds" />
          </mxGeometry>
        </mxCell>
        <mxCell id="y86xiS6CzLBwcgfLMdS_-12" value="2" style="shape=partialRectangle;html=1;whiteSpace=wrap;connectable=0;strokeColor=inherit;overflow=hidden;fillColor=none;top=0;left=0;bottom=0;right=0;pointerEvents=1;fontSize=16;" vertex="1" parent="y86xiS6CzLBwcgfLMdS_-10">
          <mxGeometry x="665" width="335" height="40" as="geometry">
            <mxRectangle width="335" height="40" as="alternateBounds" />
          </mxGeometry>
        </mxCell>
        <mxCell id="N3RhH1qTN14WOQrYuTi2-23" style="shape=tableRow;horizontal=0;startSize=0;swimlaneHead=0;swimlaneBody=0;strokeColor=inherit;top=0;left=0;bottom=0;right=0;collapsible=0;dropTarget=0;fillColor=none;points=[[0,0.5],[1,0.5]];portConstraint=eastwest;fontSize=16;" parent="N3RhH1qTN14WOQrYuTi2-1" vertex="1">
          <mxGeometry y="430" width="1000" height="40" as="geometry" />
        </mxCell>
        <mxCell id="N3RhH1qTN14WOQrYuTi2-24" value="ZBrush" style="shape=partialRectangle;html=1;whiteSpace=wrap;connectable=0;strokeColor=inherit;overflow=hidden;fillColor=none;top=0;left=0;bottom=0;right=0;pointerEvents=1;fontSize=16;" parent="N3RhH1qTN14WOQrYuTi2-23" vertex="1">
          <mxGeometry width="333" height="40" as="geometry">
            <mxRectangle width="333" height="40" as="alternateBounds" />
          </mxGeometry>
        </mxCell>
        <mxCell id="y86xiS6CzLBwcgfLMdS_-23" value="4" style="shape=partialRectangle;html=1;whiteSpace=wrap;connectable=0;strokeColor=inherit;overflow=hidden;fillColor=none;top=0;left=0;bottom=0;right=0;pointerEvents=1;fontSize=16;" vertex="1" parent="N3RhH1qTN14WOQrYuTi2-23">
          <mxGeometry x="333" width="332" height="40" as="geometry">
            <mxRectangle width="332" height="40" as="alternateBounds" />
          </mxGeometry>
        </mxCell>
        <mxCell id="N3RhH1qTN14WOQrYuTi2-25" value="4" style="shape=partialRectangle;html=1;whiteSpace=wrap;connectable=0;strokeColor=inherit;overflow=hidden;fillColor=none;top=0;left=0;bottom=0;right=0;pointerEvents=1;fontSize=16;" parent="N3RhH1qTN14WOQrYuTi2-23" vertex="1">
          <mxGeometry x="665" width="335" height="40" as="geometry">
            <mxRectangle width="335" height="40" as="alternateBounds" />
          </mxGeometry>
        </mxCell>
        <mxCell id="N3RhH1qTN14WOQrYuTi2-75" value="" style="verticalLabelPosition=bottom;shadow=0;dashed=0;align=center;html=1;verticalAlign=top;strokeWidth=1;shape=mxgraph.mockup.navigation.scrollBar;strokeColor=#999999;barPos=84.842;fillColor2=#99ddff;strokeColor2=none;direction=north;" parent="1" vertex="1">
          <mxGeometry x="1050" y="50" width="20" height="750" as="geometry" />
        </mxCell>
        <mxCell id="N3RhH1qTN14WOQrYuTi2-79" value="Vienna" style="text;strokeColor=#6c8ebf;fillColor=#dae8fc;html=1;fontSize=24;fontStyle=1;verticalAlign=middle;align=left;" parent="1" vertex="1">
          <mxGeometry x="30" y="200" width="1000" height="40" as="geometry" />
        </mxCell>
        <mxCell id="N3RhH1qTN14WOQrYuTi2-80" value="Location" style="text;html=1;align=left;verticalAlign=middle;whiteSpace=wrap;rounded=0;" parent="1" vertex="1">
          <mxGeometry x="210" y="50" width="70" height="30" as="geometry" />
        </mxCell>
        <mxCell id="N3RhH1qTN14WOQrYuTi2-81" value="Any" style="html=1;shadow=0;dashed=0;shape=mxgraph.bootstrap.rrect;rSize=5;strokeColor=none;strokeWidth=1;fillColor=#6C767D;fontColor=#ffffff;whiteSpace=wrap;align=right;verticalAlign=middle;fontStyle=0;fontSize=14;spacingRight=20;" parent="1" vertex="1">
          <mxGeometry x="210" y="74.5" width="120" height="29" as="geometry" />
        </mxCell>
        <mxCell id="N3RhH1qTN14WOQrYuTi2-82" value="" style="shape=triangle;direction=south;fillColor=#ffffff;strokeColor=none;perimeter=none;" parent="N3RhH1qTN14WOQrYuTi2-81" vertex="1">
          <mxGeometry x="1" y="0.5" width="10" height="5" relative="1" as="geometry">
            <mxPoint x="-17" y="-2.5" as="offset" />
          </mxGeometry>
        </mxCell>
        <mxCell id="N3RhH1qTN14WOQrYuTi2-83" value="Any" style="html=1;shadow=0;dashed=0;shape=mxgraph.bootstrap.rrect;rSize=5;strokeColor=none;strokeWidth=1;fillColor=#6C767D;fontColor=#ffffff;whiteSpace=wrap;align=right;verticalAlign=middle;fontStyle=0;fontSize=14;spacingRight=20;" parent="1" vertex="1">
          <mxGeometry x="210" y="134.5" width="120" height="29" as="geometry" />
        </mxCell>
        <mxCell id="N3RhH1qTN14WOQrYuTi2-84" value="" style="shape=triangle;direction=south;fillColor=#ffffff;strokeColor=none;perimeter=none;" parent="N3RhH1qTN14WOQrYuTi2-83" vertex="1">
          <mxGeometry x="1" y="0.5" width="10" height="5" relative="1" as="geometry">
            <mxPoint x="-17" y="-2.5" as="offset" />
          </mxGeometry>
        </mxCell>
        <mxCell id="N3RhH1qTN14WOQrYuTi2-85" value="Department" style="text;html=1;align=left;verticalAlign=middle;whiteSpace=wrap;rounded=0;" parent="1" vertex="1">
          <mxGeometry x="210" y="109.5" width="70" height="30" as="geometry" />
        </mxCell>
        <mxCell id="N3RhH1qTN14WOQrYuTi2-86" value="License Type" style="text;html=1;align=left;verticalAlign=middle;whiteSpace=wrap;rounded=0;" parent="1" vertex="1">
          <mxGeometry x="350" y="50" width="80" height="30" as="geometry" />
        </mxCell>
        <mxCell id="N3RhH1qTN14WOQrYuTi2-87" value="Any" style="html=1;shadow=0;dashed=0;shape=mxgraph.bootstrap.rrect;rSize=5;strokeColor=none;strokeWidth=1;fillColor=#6C767D;fontColor=#ffffff;whiteSpace=wrap;align=right;verticalAlign=middle;fontStyle=0;fontSize=14;spacingRight=20;" parent="1" vertex="1">
          <mxGeometry x="350" y="74.5" width="120" height="29" as="geometry" />
        </mxCell>
        <mxCell id="N3RhH1qTN14WOQrYuTi2-88" value="" style="shape=triangle;direction=south;fillColor=#ffffff;strokeColor=none;perimeter=none;" parent="N3RhH1qTN14WOQrYuTi2-87" vertex="1">
          <mxGeometry x="1" y="0.5" width="10" height="5" relative="1" as="geometry">
            <mxPoint x="-17" y="-2.5" as="offset" />
          </mxGeometry>
        </mxCell>
        <mxCell id="N3RhH1qTN14WOQrYuTi2-89" value="&lt;i&gt;&lt;font style=&quot;color: light-dark(rgb(0, 0, 0), rgb(125, 125, 125));&quot;&gt;The result set is ordered in:&lt;/font&gt;&lt;/i&gt;&lt;div&gt;&lt;i&gt;&lt;font style=&quot;color: light-dark(rgb(0, 0, 0), rgb(125, 125, 125));&quot;&gt;LOCATION&lt;/font&gt;&lt;/i&gt;&lt;/div&gt;&lt;div&gt;&lt;i&gt;&lt;font style=&quot;color: light-dark(rgb(0, 0, 0), rgb(125, 125, 125));&quot;&gt;&lt;span style=&quot;white-space: pre;&quot;&gt;&#x9;&lt;/span&gt;- DEPARTMENT&lt;br&gt;&lt;/font&gt;&lt;/i&gt;&lt;/div&gt;&lt;div&gt;&lt;i&gt;&lt;font style=&quot;color: light-dark(rgb(0, 0, 0), rgb(125, 125, 125));&quot;&gt;&lt;span style=&quot;white-space: pre;&quot;&gt;&#x9;&lt;span style=&quot;white-space: pre;&quot;&gt;&#x9;&lt;/span&gt;&lt;/span&gt;- Result Table&amp;nbsp;&lt;br&gt;&lt;/font&gt;&lt;/i&gt;&lt;/div&gt;" style="text;html=1;align=left;verticalAlign=middle;whiteSpace=wrap;rounded=0;" parent="1" vertex="1">
          <mxGeometry x="660" y="60" width="360" height="110" as="geometry" />
        </mxCell>
        <mxCell id="y86xiS6CzLBwcgfLMdS_-24" value="Dep. 1B" style="shape=table;startSize=30;container=1;collapsible=0;childLayout=tableLayout;strokeColor=default;fontSize=20;fontStyle=1;align=left;" vertex="1" parent="1">
          <mxGeometry x="30" y="720" width="1000" height="110" as="geometry" />
        </mxCell>
        <mxCell id="y86xiS6CzLBwcgfLMdS_-25" value="" style="shape=tableRow;horizontal=0;startSize=0;swimlaneHead=0;swimlaneBody=0;strokeColor=inherit;top=0;left=0;bottom=0;right=0;collapsible=0;dropTarget=0;fillColor=none;points=[[0,0.5],[1,0.5]];portConstraint=eastwest;fontSize=16;" vertex="1" parent="y86xiS6CzLBwcgfLMdS_-24">
          <mxGeometry y="30" width="1000" height="40" as="geometry" />
        </mxCell>
        <mxCell id="y86xiS6CzLBwcgfLMdS_-26" value="&lt;b&gt;License Type&lt;/b&gt;" style="shape=partialRectangle;html=1;whiteSpace=wrap;connectable=0;strokeColor=#6c8ebf;overflow=hidden;fillColor=#dae8fc;top=0;left=0;bottom=0;right=0;pointerEvents=1;fontSize=16;" vertex="1" parent="y86xiS6CzLBwcgfLMdS_-25">
          <mxGeometry width="333" height="40" as="geometry">
            <mxRectangle width="333" height="40" as="alternateBounds" />
          </mxGeometry>
        </mxCell>
        <mxCell id="y86xiS6CzLBwcgfLMdS_-27" value="&lt;b&gt;Licences Available&lt;/b&gt;" style="shape=partialRectangle;html=1;whiteSpace=wrap;connectable=0;strokeColor=#6c8ebf;overflow=hidden;fillColor=#dae8fc;top=0;left=0;bottom=0;right=0;pointerEvents=1;fontSize=16;" vertex="1" parent="y86xiS6CzLBwcgfLMdS_-25">
          <mxGeometry x="333" width="332" height="40" as="geometry">
            <mxRectangle width="332" height="40" as="alternateBounds" />
          </mxGeometry>
        </mxCell>
        <mxCell id="y86xiS6CzLBwcgfLMdS_-28" value="&lt;b&gt;Lincences in use&lt;/b&gt;" style="shape=partialRectangle;html=1;whiteSpace=wrap;connectable=0;strokeColor=#6c8ebf;overflow=hidden;fillColor=#dae8fc;top=0;left=0;bottom=0;right=0;pointerEvents=1;fontSize=16;" vertex="1" parent="y86xiS6CzLBwcgfLMdS_-25">
          <mxGeometry x="665" width="335" height="40" as="geometry">
            <mxRectangle width="335" height="40" as="alternateBounds" />
          </mxGeometry>
        </mxCell>
        <mxCell id="y86xiS6CzLBwcgfLMdS_-29" style="shape=tableRow;horizontal=0;startSize=0;swimlaneHead=0;swimlaneBody=0;strokeColor=inherit;top=0;left=0;bottom=0;right=0;collapsible=0;dropTarget=0;fillColor=none;points=[[0,0.5],[1,0.5]];portConstraint=eastwest;fontSize=16;" vertex="1" parent="y86xiS6CzLBwcgfLMdS_-24">
          <mxGeometry y="70" width="1000" height="40" as="geometry" />
        </mxCell>
        <mxCell id="y86xiS6CzLBwcgfLMdS_-30" value="3Ds Max" style="shape=partialRectangle;html=1;whiteSpace=wrap;connectable=0;strokeColor=inherit;overflow=hidden;fillColor=none;top=0;left=0;bottom=0;right=0;pointerEvents=1;fontSize=16;" vertex="1" parent="y86xiS6CzLBwcgfLMdS_-29">
          <mxGeometry width="333" height="40" as="geometry">
            <mxRectangle width="333" height="40" as="alternateBounds" />
          </mxGeometry>
        </mxCell>
        <mxCell id="y86xiS6CzLBwcgfLMdS_-31" value="2" style="shape=partialRectangle;html=1;whiteSpace=wrap;connectable=0;strokeColor=inherit;overflow=hidden;fillColor=none;top=0;left=0;bottom=0;right=0;pointerEvents=1;fontSize=16;" vertex="1" parent="y86xiS6CzLBwcgfLMdS_-29">
          <mxGeometry x="333" width="332" height="40" as="geometry">
            <mxRectangle width="332" height="40" as="alternateBounds" />
          </mxGeometry>
        </mxCell>
        <mxCell id="y86xiS6CzLBwcgfLMdS_-32" value="2" style="shape=partialRectangle;html=1;whiteSpace=wrap;connectable=0;strokeColor=inherit;overflow=hidden;fillColor=none;top=0;left=0;bottom=0;right=0;pointerEvents=1;fontSize=16;" vertex="1" parent="y86xiS6CzLBwcgfLMdS_-29">
          <mxGeometry x="665" width="335" height="40" as="geometry">
            <mxRectangle width="335" height="40" as="alternateBounds" />
          </mxGeometry>
        </mxCell>
        <mxCell id="y86xiS6CzLBwcgfLMdS_-69" value="License Type" style="html=1;shadow=0;dashed=0;shape=mxgraph.bootstrap.rrect;rSize=5;strokeColor=none;strokeWidth=1;fillColor=#6C767D;fontColor=#ffffff;whiteSpace=wrap;align=right;verticalAlign=middle;fontStyle=0;fontSize=14;spacingRight=20;" vertex="1" parent="1">
          <mxGeometry x="350" y="132" width="120" height="29" as="geometry" />
        </mxCell>
        <mxCell id="y86xiS6CzLBwcgfLMdS_-70" value="" style="shape=triangle;direction=south;fillColor=#ffffff;strokeColor=none;perimeter=none;" vertex="1" parent="y86xiS6CzLBwcgfLMdS_-69">
          <mxGeometry x="1" y="0.5" width="10" height="5" relative="1" as="geometry">
            <mxPoint x="-17" y="-2.5" as="offset" />
          </mxGeometry>
        </mxCell>
        <mxCell id="y86xiS6CzLBwcgfLMdS_-71" value="Order" style="text;html=1;align=left;verticalAlign=middle;whiteSpace=wrap;rounded=0;" vertex="1" parent="1">
          <mxGeometry x="350" y="107.5" width="80" height="30" as="geometry" />
        </mxCell>
      </root>
    </mxGraphModel>
  </diagram>
</mxfile>
